<?xml version="1.0" encoding="UTF-8" standalone="no"?>
<!-- Generator: Adobe Illustrator 19.1.0, SVG Export Plug-In . SVG Version: 6.00 Build 0)  -->

<svg
   xmlns:dc="http://purl.org/dc/elements/1.1/"
   xmlns:cc="http://creativecommons.org/ns#"
   xmlns:rdf="http://www.w3.org/1999/02/22-rdf-syntax-ns#"
   xmlns:svg="http://www.w3.org/2000/svg"
   xmlns="http://www.w3.org/2000/svg"
   xmlns:sodipodi="http://sodipodi.sourceforge.net/DTD/sodipodi-0.dtd"
   xmlns:inkscape="http://www.inkscape.org/namespaces/inkscape"
   version="1.1"
   id="Layer_1"
   x="0px"
   y="0px"
   viewBox="0 0 300 300"
   xml:space="preserve"
   inkscape:version="0.91 r13725"
   sodipodi:docname="Logo travaux orange.svg"
   width="300"
   height="300"><metadata
     id="metadata29"><rdf:RDF><cc:Work
         rdf:about=""><dc:format>image/svg+xml</dc:format><dc:type
           rdf:resource="http://purl.org/dc/dcmitype/StillImage" /><dc:title></dc:title></cc:Work></rdf:RDF></metadata><defs
     id="defs27" /><sodipodi:namedview
     pagecolor="#ffffff"
     bordercolor="#666666"
     borderopacity="1"
     objecttolerance="10"
     gridtolerance="10"
     guidetolerance="10"
     inkscape:pageopacity="0"
     inkscape:pageshadow="2"
     inkscape:window-width="1920"
     inkscape:window-height="1017"
     id="namedview25"
     showgrid="false"
     fit-margin-top="0"
     fit-margin-left="0"
     fit-margin-right="0"
     fit-margin-bottom="0"
     inkscape:zoom="1.4142136"
     inkscape:cx="190.7952"
     inkscape:cy="124.03773"
     inkscape:window-x="-8"
     inkscape:window-y="-8"
     inkscape:window-maximized="1"
     inkscape:current-layer="Layer_1" /><style
     type="text/css"
     id="style3">
	.st0{display:none;fill:#2B3544;}
	.st1{fill:#E0995E;}
	.st2{opacity:0.2;}
	.st3{fill:#231F20;}
	.st4{fill:#FFFFFF;}
</style><rect
     x="-139"
     y="-1277"
     class="st0"
     width="608"
     height="1984"
     id="rect5"
     style="display:none;fill:#2b3544" /><circle
     class="st1"
     cx="150"
     cy="150"
     id="circle7"
     style="fill:#f16633;fill-opacity:1"
     r="150" /><g
     class="st2"
     id="g9"
     style="opacity:0.2"
     transform="translate(0,236)" /><g
     id="g17"
     transform="matrix(4.766175,0,0,4.4295,-2.5171,18.994)" /><g
     id="g4788"
     transform="matrix(0.99507735,0,0,0.99507735,0.56942538,236.32125)"><path
       sodipodi:nodetypes="ccccsc"
       inkscape:connector-curvature="0"
       id="path4771"
       d="m 150,-214.71289 c -5.03503,10e-4 -7.88703,6.12948 -9.5957,11.66211 l -11.75,38.07812 42.87022,-0.19848 -11.91905,-37.87964 c -1.69471,-5.3859 -4.57044,-11.66327 -9.60547,-11.66211 z"
       style="fill:#ffffff" /><path
       id="path23"
       d="m 206.44922,-51.333984 -112.900392,0 -11.761719,38.085937 -17.578125,0 c -5.242792,0 -9.53125,3.984972 -9.53125,8.857422 0,4.87245 4.288458,8.859375 9.53125,8.859375 l 171.582036,0 c 5.24279,0 9.5332,-3.986925 9.5332,-8.859375 0,-4.87245 -4.29041,-8.857422 -9.5332,-8.857422 l -17.57813,0 z"
       style="fill:#ffffff"
       inkscape:connector-curvature="0" /><path
       sodipodi:nodetypes="ccccc"
       inkscape:connector-curvature="0"
       id="path4771-2"
       d="M 116.94531,-127.09191 105.25,-89.213 l 89.50586,0 -11.71261,-37.87825 z"
       style="fill:#ffffff" /></g></svg>